<svg width="192" height="192" viewBox="0 0 192 192" xmlns="http://www.w3.org/2000/svg">
  <rect x="24" y="24" width="144" height="144" rx="12" fill="#8d9ba8"/>
  <rect x="36" y="60" width="120" height="96" rx="6" fill="white"/>
  <rect x="48" y="36" width="12" height="36" rx="6" fill="#8d9ba8"/>
  <rect x="132" y="36" width="12" height="36" rx="6" fill="#8d9ba8"/>
  <rect x="60" y="76" width="12" height="12" rx="6" fill="#8d9ba8"/>
  <rect x="90" y="76" width="12" height="12" rx="6" fill="#8d9ba8"/>
  <rect x="120" y="76" width="12" height="12" rx="6" fill="#8d9ba8"/>
  <rect x="60" y="100" width="12" height="12" rx="6" fill="#8d9ba8"/>
  <rect x="90" y="100" width="12" height="12" rx="6" fill="#8d9ba8"/>
  <rect x="120" y="100" width="12" height="12" rx="6" fill="#8d9ba8"/>
  <rect x="60" y="124" width="12" height="12" rx="6" fill="#8d9ba8"/>
  <rect x="90" y="124" width="12" height="12" rx="6" fill="#8d9ba8"/>
  <rect x="120" y="124" width="12" height="12" rx="6" fill="#8d9ba8"/>
</svg>